<mxfile host="Electron" agent="Mozilla/5.0 (Windows NT 10.0; Win64; x64) AppleWebKit/537.36 (KHTML, like Gecko) draw.io/28.0.6 Chrome/138.0.7204.100 Electron/37.2.3 Safari/537.36" version="28.0.6">
  <diagram name="Page-1" id="6lRWRJxoMQSUkEcXwqy0">
    <mxGraphModel dx="464" dy="825" grid="1" gridSize="10" guides="1" tooltips="1" connect="1" arrows="1" fold="1" page="1" pageScale="1" pageWidth="850" pageHeight="1100" math="0" shadow="0">
      <root>
        <mxCell id="0" />
        <mxCell id="1" parent="0" />
        <mxCell id="5QdhlPw876lYJtPeTAF2-8" value="Customer Information" style="text;strokeColor=none;align=center;fillColor=none;html=1;verticalAlign=middle;whiteSpace=wrap;rounded=0;" parent="1" vertex="1">
          <mxGeometry x="415" y="160" width="160" height="60" as="geometry" />
        </mxCell>
        <mxCell id="5QdhlPw876lYJtPeTAF2-12" value="Contains historic and current product information&lt;div&gt;&lt;br&gt;&lt;/div&gt;" style="text;strokeColor=none;align=center;fillColor=none;html=1;verticalAlign=middle;whiteSpace=wrap;rounded=0;" parent="1" vertex="1">
          <mxGeometry x="460" y="390" width="160" height="60" as="geometry" />
        </mxCell>
        <mxCell id="5QdhlPw876lYJtPeTAF2-15" value="Transactional Records about Sales and Orders&lt;div&gt;&lt;br&gt;&lt;/div&gt;" style="text;strokeColor=none;align=center;fillColor=none;html=1;verticalAlign=middle;whiteSpace=wrap;rounded=0;" parent="1" vertex="1">
          <mxGeometry x="115" y="260" width="160" height="60" as="geometry" />
        </mxCell>
        <mxCell id="5QdhlPw876lYJtPeTAF2-22" value="crm_sales_details" style="swimlane;fontStyle=0;childLayout=stackLayout;horizontal=1;startSize=30;horizontalStack=0;resizeParent=1;resizeParentMax=0;resizeLast=0;collapsible=1;marginBottom=0;whiteSpace=wrap;html=1;rounded=0;fillColor=#dae8fc;strokeColor=#6c8ebf;fontSize=26;" parent="1" vertex="1">
          <mxGeometry x="90" y="320" width="210" height="110" as="geometry" />
        </mxCell>
        <mxCell id="5QdhlPw876lYJtPeTAF2-23" value="sls_cust_id" style="text;strokeColor=none;fillColor=none;align=left;verticalAlign=middle;spacingLeft=4;spacingRight=4;overflow=hidden;points=[[0,0.5,0,0,0],[1,0.5,0,0,0]];portConstraint=eastwest;rotatable=0;whiteSpace=wrap;html=1;fontSize=26;" parent="5QdhlPw876lYJtPeTAF2-22" vertex="1">
          <mxGeometry y="30" width="210" height="40" as="geometry" />
        </mxCell>
        <mxCell id="5QdhlPw876lYJtPeTAF2-24" value="sls_prd_key" style="text;strokeColor=none;fillColor=none;align=left;verticalAlign=middle;spacingLeft=4;spacingRight=4;overflow=hidden;points=[[0,0.5],[1,0.5]];portConstraint=eastwest;rotatable=0;whiteSpace=wrap;html=1;fontSize=26;" parent="5QdhlPw876lYJtPeTAF2-22" vertex="1">
          <mxGeometry y="70" width="210" height="40" as="geometry" />
        </mxCell>
        <mxCell id="5QdhlPw876lYJtPeTAF2-25" value="crm_prd_info" style="swimlane;fontStyle=0;childLayout=stackLayout;horizontal=1;startSize=30;horizontalStack=0;resizeParent=1;resizeParentMax=0;resizeLast=0;collapsible=1;marginBottom=0;whiteSpace=wrap;html=1;rounded=0;fillColor=#dae8fc;strokeColor=#6c8ebf;fontSize=26;" parent="1" vertex="1">
          <mxGeometry x="400" y="450" width="210" height="70" as="geometry" />
        </mxCell>
        <mxCell id="5QdhlPw876lYJtPeTAF2-27" value="cat_id" style="text;strokeColor=none;fillColor=none;align=left;verticalAlign=middle;spacingLeft=4;spacingRight=4;overflow=hidden;points=[[0,0.5],[1,0.5]];portConstraint=eastwest;rotatable=0;whiteSpace=wrap;html=1;fontSize=26;" parent="5QdhlPw876lYJtPeTAF2-25" vertex="1">
          <mxGeometry y="30" width="210" height="40" as="geometry" />
        </mxCell>
        <mxCell id="5QdhlPw876lYJtPeTAF2-29" style="edgeStyle=orthogonalEdgeStyle;rounded=0;orthogonalLoop=1;jettySize=auto;html=1;exitX=1;exitY=0.5;exitDx=0;exitDy=0;entryX=0;entryY=0.5;entryDx=0;entryDy=0;" parent="1" source="5QdhlPw876lYJtPeTAF2-24" target="5QdhlPw876lYJtPeTAF2-27" edge="1">
          <mxGeometry relative="1" as="geometry" />
        </mxCell>
        <mxCell id="LmRCczBz-398mMKsyJmw-1" value="erp_cust_az12" style="swimlane;fontStyle=0;childLayout=stackLayout;horizontal=1;startSize=30;horizontalStack=0;resizeParent=1;resizeParentMax=0;resizeLast=0;collapsible=1;marginBottom=0;whiteSpace=wrap;html=1;rounded=0;fillColor=#fff2cc;strokeColor=#d6b656;fontSize=26;" parent="1" vertex="1">
          <mxGeometry x="775" y="200" width="210" height="70" as="geometry" />
        </mxCell>
        <mxCell id="LmRCczBz-398mMKsyJmw-2" value="cid" style="text;strokeColor=none;fillColor=none;align=left;verticalAlign=middle;spacingLeft=4;spacingRight=4;overflow=hidden;points=[[0,0.5],[1,0.5]];portConstraint=eastwest;rotatable=0;whiteSpace=wrap;html=1;fontSize=26;" parent="LmRCczBz-398mMKsyJmw-1" vertex="1">
          <mxGeometry y="30" width="210" height="40" as="geometry" />
        </mxCell>
        <mxCell id="LmRCczBz-398mMKsyJmw-7" value="&lt;div&gt;Extra Customer Information (Birthdate)&lt;/div&gt;" style="text;strokeColor=none;align=center;fillColor=none;html=1;verticalAlign=middle;whiteSpace=wrap;rounded=0;" parent="1" vertex="1">
          <mxGeometry x="800" y="150" width="160" height="60" as="geometry" />
        </mxCell>
        <mxCell id="LmRCczBz-398mMKsyJmw-9" value="erp_loc_a101" style="swimlane;fontStyle=0;childLayout=stackLayout;horizontal=1;startSize=30;horizontalStack=0;resizeParent=1;resizeParentMax=0;resizeLast=0;collapsible=1;marginBottom=0;whiteSpace=wrap;html=1;rounded=0;fillColor=#fff2cc;strokeColor=#d6b656;fontSize=26;" parent="1" vertex="1">
          <mxGeometry x="770" y="365" width="210" height="70" as="geometry" />
        </mxCell>
        <mxCell id="LmRCczBz-398mMKsyJmw-10" value="cid" style="text;strokeColor=none;fillColor=none;align=left;verticalAlign=middle;spacingLeft=4;spacingRight=4;overflow=hidden;points=[[0,0.5],[1,0.5]];portConstraint=eastwest;rotatable=0;whiteSpace=wrap;html=1;fontSize=26;" parent="LmRCczBz-398mMKsyJmw-9" vertex="1">
          <mxGeometry y="30" width="210" height="40" as="geometry" />
        </mxCell>
        <mxCell id="LmRCczBz-398mMKsyJmw-11" value="&lt;div&gt;Location of Customers (Country)&lt;/div&gt;" style="text;strokeColor=none;align=center;fillColor=none;html=1;verticalAlign=middle;whiteSpace=wrap;rounded=0;" parent="1" vertex="1">
          <mxGeometry x="790" y="315" width="160" height="60" as="geometry" />
        </mxCell>
        <mxCell id="LmRCczBz-398mMKsyJmw-14" value="erp_px_cat_g1v2" style="swimlane;fontStyle=0;childLayout=stackLayout;horizontal=1;startSize=30;horizontalStack=0;resizeParent=1;resizeParentMax=0;resizeLast=0;collapsible=1;marginBottom=0;whiteSpace=wrap;html=1;rounded=0;fillColor=#fff2cc;strokeColor=#d6b656;fontSize=26;" parent="1" vertex="1">
          <mxGeometry x="750" y="570" width="210" height="70" as="geometry" />
        </mxCell>
        <mxCell id="LmRCczBz-398mMKsyJmw-15" value="id" style="text;strokeColor=none;fillColor=none;align=left;verticalAlign=middle;spacingLeft=4;spacingRight=4;overflow=hidden;points=[[0,0.5],[1,0.5]];portConstraint=eastwest;rotatable=0;whiteSpace=wrap;html=1;fontSize=26;" parent="LmRCczBz-398mMKsyJmw-14" vertex="1">
          <mxGeometry y="30" width="210" height="40" as="geometry" />
        </mxCell>
        <mxCell id="LmRCczBz-398mMKsyJmw-16" value="&lt;div&gt;Product Categories&lt;/div&gt;" style="text;strokeColor=none;align=center;fillColor=none;html=1;verticalAlign=middle;whiteSpace=wrap;rounded=0;" parent="1" vertex="1">
          <mxGeometry x="770" y="520" width="160" height="60" as="geometry" />
        </mxCell>
        <mxCell id="LmRCczBz-398mMKsyJmw-17" style="edgeStyle=orthogonalEdgeStyle;rounded=0;orthogonalLoop=1;jettySize=auto;html=1;exitX=1;exitY=0.5;exitDx=0;exitDy=0;entryX=0;entryY=0.5;entryDx=0;entryDy=0;" parent="1" source="5QdhlPw876lYJtPeTAF2-27" target="LmRCczBz-398mMKsyJmw-15" edge="1">
          <mxGeometry relative="1" as="geometry" />
        </mxCell>
        <mxCell id="LmRCczBz-398mMKsyJmw-22" value="CRM" style="rounded=1;whiteSpace=wrap;html=1;fillColor=#dae8fc;strokeColor=#6c8ebf;fontStyle=1;fontSize=17;" parent="1" vertex="1">
          <mxGeometry x="425" y="100" width="120" height="60" as="geometry" />
        </mxCell>
        <mxCell id="LmRCczBz-398mMKsyJmw-23" value="ERP" style="rounded=1;whiteSpace=wrap;html=1;fillColor=#fff2cc;strokeColor=#d6b656;fontStyle=1;fontSize=17;" parent="1" vertex="1">
          <mxGeometry x="810" y="100" width="120" height="60" as="geometry" />
        </mxCell>
        <mxCell id="luXcGbAixGT3bIU0Gr7M-3" value="crm_cust_info" style="swimlane;fontStyle=0;childLayout=stackLayout;horizontal=1;startSize=30;horizontalStack=0;resizeParent=1;resizeParentMax=0;resizeLast=0;collapsible=1;marginBottom=0;whiteSpace=wrap;html=1;rounded=0;fillColor=#dae8fc;strokeColor=#6c8ebf;fontSize=26;" parent="1" vertex="1">
          <mxGeometry x="400" y="210" width="210" height="110" as="geometry" />
        </mxCell>
        <mxCell id="luXcGbAixGT3bIU0Gr7M-4" value="cst_id" style="text;strokeColor=none;fillColor=none;align=left;verticalAlign=middle;spacingLeft=4;spacingRight=4;overflow=hidden;points=[[0,0.5,0,0,0],[1,0.5,0,0,0]];portConstraint=eastwest;rotatable=0;whiteSpace=wrap;html=1;fontSize=26;" parent="luXcGbAixGT3bIU0Gr7M-3" vertex="1">
          <mxGeometry y="30" width="210" height="40" as="geometry" />
        </mxCell>
        <mxCell id="luXcGbAixGT3bIU0Gr7M-5" value="cst_key" style="text;strokeColor=none;fillColor=none;align=left;verticalAlign=middle;spacingLeft=4;spacingRight=4;overflow=hidden;points=[[0,0.5],[1,0.5]];portConstraint=eastwest;rotatable=0;whiteSpace=wrap;html=1;fontSize=26;" parent="luXcGbAixGT3bIU0Gr7M-3" vertex="1">
          <mxGeometry y="70" width="210" height="40" as="geometry" />
        </mxCell>
        <mxCell id="luXcGbAixGT3bIU0Gr7M-12" style="edgeStyle=orthogonalEdgeStyle;rounded=0;orthogonalLoop=1;jettySize=auto;html=1;exitX=1;exitY=0.5;exitDx=0;exitDy=0;exitPerimeter=0;entryX=0;entryY=0.5;entryDx=0;entryDy=0;entryPerimeter=0;" parent="1" source="5QdhlPw876lYJtPeTAF2-23" target="luXcGbAixGT3bIU0Gr7M-4" edge="1">
          <mxGeometry relative="1" as="geometry" />
        </mxCell>
        <mxCell id="luXcGbAixGT3bIU0Gr7M-14" style="edgeStyle=orthogonalEdgeStyle;rounded=0;orthogonalLoop=1;jettySize=auto;html=1;exitX=1;exitY=0.5;exitDx=0;exitDy=0;entryX=-0.005;entryY=0.825;entryDx=0;entryDy=0;entryPerimeter=0;" parent="1" source="luXcGbAixGT3bIU0Gr7M-5" target="LmRCczBz-398mMKsyJmw-2" edge="1">
          <mxGeometry relative="1" as="geometry">
            <mxPoint x="720" y="300" as="targetPoint" />
          </mxGeometry>
        </mxCell>
        <mxCell id="luXcGbAixGT3bIU0Gr7M-16" style="edgeStyle=orthogonalEdgeStyle;rounded=0;orthogonalLoop=1;jettySize=auto;html=1;exitX=1;exitY=0.5;exitDx=0;exitDy=0;entryX=0;entryY=0.5;entryDx=0;entryDy=0;" parent="1" source="luXcGbAixGT3bIU0Gr7M-5" target="LmRCczBz-398mMKsyJmw-10" edge="1">
          <mxGeometry relative="1" as="geometry" />
        </mxCell>
        <mxCell id="w0uiyTY2kppiTpGoQvXE-1" value="&lt;b&gt;PRODUCTS&lt;/b&gt;" style="text;strokeColor=#b85450;align=center;fillColor=#f8cecc;html=1;verticalAlign=middle;whiteSpace=wrap;rounded=0;strokeWidth=1;" parent="1" vertex="1">
          <mxGeometry x="400" y="520" width="210" height="30" as="geometry" />
        </mxCell>
        <mxCell id="w0uiyTY2kppiTpGoQvXE-2" value="&lt;b&gt;PRODUCTS&lt;/b&gt;" style="text;strokeColor=#b85450;align=center;fillColor=#f8cecc;html=1;verticalAlign=middle;whiteSpace=wrap;rounded=0;strokeWidth=1;" parent="1" vertex="1">
          <mxGeometry x="750" y="640" width="210" height="30" as="geometry" />
        </mxCell>
        <mxCell id="w0uiyTY2kppiTpGoQvXE-4" value="&lt;b&gt;CUSTOMER&lt;/b&gt;" style="text;strokeColor=#005700;align=center;fillColor=#008a00;html=1;verticalAlign=middle;whiteSpace=wrap;rounded=0;strokeWidth=1;fontColor=#ffffff;" parent="1" vertex="1">
          <mxGeometry x="400" y="320" width="210" height="30" as="geometry" />
        </mxCell>
        <mxCell id="w0uiyTY2kppiTpGoQvXE-5" value="&lt;b&gt;CUSTOMER&lt;/b&gt;" style="text;strokeColor=#005700;align=center;fillColor=#008a00;html=1;verticalAlign=middle;whiteSpace=wrap;rounded=0;strokeWidth=1;fontColor=#ffffff;" parent="1" vertex="1">
          <mxGeometry x="770" y="435" width="210" height="30" as="geometry" />
        </mxCell>
        <mxCell id="w0uiyTY2kppiTpGoQvXE-6" value="&lt;b&gt;CUSTOMER&lt;/b&gt;" style="text;strokeColor=#005700;align=center;fillColor=#008a00;html=1;verticalAlign=middle;whiteSpace=wrap;rounded=0;strokeWidth=1;fontColor=#ffffff;" parent="1" vertex="1">
          <mxGeometry x="775" y="270" width="210" height="30" as="geometry" />
        </mxCell>
        <mxCell id="w0uiyTY2kppiTpGoQvXE-7" value="&lt;b&gt;SALES&lt;/b&gt;" style="text;strokeColor=#9673a6;align=center;fillColor=#e1d5e7;html=1;verticalAlign=middle;whiteSpace=wrap;rounded=0;strokeWidth=1;" parent="1" vertex="1">
          <mxGeometry x="90" y="430" width="210" height="30" as="geometry" />
        </mxCell>
      </root>
    </mxGraphModel>
  </diagram>
</mxfile>
